<svg width="56" height="49" viewBox="0 0 56 49" fill="none" xmlns="http://www.w3.org/2000/svg">
<path d="M27.9051 21.4676C31.656 21.4676 34.6966 18.4269 34.6966 14.676C34.6966 10.9252 31.656 7.88452 27.9051 7.88452C24.1543 7.88452 21.1136 10.9252 21.1136 14.676C21.1136 18.4269 24.1543 21.4676 27.9051 21.4676Z" fill="#FFD600" fill-opacity="0.78"/>
<path d="M55.4467 3.83521L30.1078 47.7297C29.1316 49.4234 26.6787 49.4234 25.6942 47.7297L0.355311 3.83521C-0.946256 1.5825 1.58177 -0.945529 3.83449 0.356038L16.5248 7.6815C17.843 8.44075 18.5272 9.99263 18.11 11.4527C17.7429 12.7543 17.6177 14.156 17.8096 15.6161C18.4104 20.2133 22.1565 23.876 26.7704 24.3766C32.9112 25.0441 38.1008 20.2467 38.1008 14.2478C38.1008 13.3217 37.9756 12.4206 37.742 11.5695C37.3332 10.0594 37.9339 8.46578 39.2855 7.68985L51.9841 0.356038C54.2285 -0.945529 56.7482 1.57416 55.4467 3.83521Z" fill="url(#paint0_linear_106_6)"/>
<defs>
<linearGradient id="paint0_linear_106_6" x1="13.3494" y1="3.52653" x2="40.4654" y2="43.5748" gradientUnits="userSpaceOnUse">
<stop stop-color="#EF1262"/>
<stop offset="1" stop-color="#4361EE"/>
</linearGradient>
</defs>
</svg>