<svg xmlns="http://www.w3.org/2000/svg" viewBox="0 0 500 500" width="1000" height="1000">

    <ellipse cx="250" cy="416.24" rx="193.89" ry="11.32" style="fill:#f5f5f5" />
    <path style="fill:#008bcb" d="M249.96 361.05h-142l-7.77-228.37h142z" />
    <path style="fill:#008bcb" d="M257.05 353.96h-142l-7.78-228.37h142z" />
    <path style="fill:#fff;opacity:.30000000000000004" d="M257.05 353.96h-142l-7.78-228.37h142z" />
    <ellipse cx="180.5" cy="191.09" rx="39.27" ry="40.63" transform="rotate(-45.49 180.488 191.088)"
        style="fill:#008bcb" />
    <path
        d="M213.47 191.09a32 32 0 0 1-3.45 15.7 31.59 31.59 0 0 1-28.4 17.26 34.26 34.26 0 0 1-29.56-17.26 33.5 33.5 0 0 1-4.52-15.7 31.64 31.64 0 0 1 31.84-33 34.36 34.36 0 0 1 34.09 33"
        style="fill:#fff" />
    <path
        d="M210 206.79a31.59 31.59 0 0 1-28.4 17.26 34.26 34.26 0 0 1-29.56-17.26 50.6 50.6 0 0 1 28.7-8.79 53.5 53.5 0 0 1 29.26 8.79"
        style="fill:#008bcb;opacity:.6000000000000001" />
    <ellipse cx="180.12" cy="179.81" rx="14.44" ry="14.94" transform="rotate(-45.49 180.1 179.805)"
        style="fill:#008bcb;opacity:.6000000000000001" />
    <path style="fill:#fff" d="M228.52 271.26h-90.58l-.61-18h90.58zm1.1 32.17h-90.59l-.61-18h90.59z" />
    <path
        d="m194.66 287.91-21.83 3a1.52 1.52 0 0 0-1.32 1.8l2.87 14.63a1.76 1.76 0 0 0 1.94 1.37l21.83-3a1.53 1.53 0 0 0 1.31-1.81l-2.86-14.63a1.75 1.75 0 0 0-1.94-1.36m-6.27 14.82-4 .53-.39-4.72a2.8 2.8 0 0 1-1.63-2 2.49 2.49 0 0 1 2.16-3 2.86 2.86 0 0 1 3.16 2.23 2.45 2.45 0 0 1-.78 2.33Zm4.11-15.61a1.56 1.56 0 0 1-1.72-1.21l-.28-1.43a8.23 8.23 0 0 0-8.62-6.56 7 7 0 0 0-6.46 8.39l.32 1.65a1.34 1.34 0 0 1-1.17 1.6 1.54 1.54 0 0 1-1.72-1.21l-.27-1.39a9.85 9.85 0 0 1 8-11.75 11.2 11.2 0 0 1 12.8 8.67l.32 1.64a1.34 1.34 0 0 1-1.2 1.6m22.17 41.52H155.7l-.39-11.72h58.96z"
        style="fill:#008bcb" />
    <path
        d="M186.22 262.26a3.16 3.16 0 0 1-3.18 3.29 3.44 3.44 0 0 1-3.41-3.29 3.16 3.16 0 0 1 3.18-3.29 3.43 3.43 0 0 1 3.41 3.29m-14.22 0a3.15 3.15 0 0 1-3.18 3.29 3.43 3.43 0 0 1-3.4-3.29 3.16 3.16 0 0 1 3.18-3.29 3.42 3.42 0 0 1 3.4 3.29m-14.13 0a3.16 3.16 0 0 1-3.18 3.29 3.42 3.42 0 0 1-3.4-3.29 3.16 3.16 0 0 1 3.18-3.29 3.42 3.42 0 0 1 3.4 3.29m42.52 0a3.16 3.16 0 0 1-3.18 3.29 3.42 3.42 0 0 1-3.4-3.29A3.15 3.15 0 0 1 197 259a3.42 3.42 0 0 1 3.39 3.26m14.17 0a3.15 3.15 0 0 1-3.18 3.29 3.43 3.43 0 0 1-3.4-3.29 3.16 3.16 0 0 1 3.18-3.29 3.42 3.42 0 0 1 3.4 3.29"
        style="fill:#263238" />
    <path
        d="M333.91 174.28c1.33 2.14 2.44 4.18 3.58 6.31s2.17 4.27 3.18 6.46a92.4 92.4 0 0 1 5.1 13.73c.18.59.31 1.22.46 1.83l.22.93.11.46.13.76a13.7 13.7 0 0 1-.31 5.16 29.2 29.2 0 0 1-3.12 7.45 59.2 59.2 0 0 1-8.88 11.63l-4.21-3.18a111 111 0 0 0 5.63-12 25 25 0 0 0 1.53-5.63 4.5 4.5 0 0 0-.08-1.77l-.4-1.22c-.16-.5-.31-1-.5-1.51a113 113 0 0 0-5.27-12.08c-2-4-4.15-8-6.3-11.82Z"
        style="fill:#ff8b7b" />
    <path d="m331.24 224.43-4.6 2.43 5.28 6.18s3.3-2.23 3.45-5.63Z" style="fill:#ff8b7b" />
    <path style="fill:#ff8b7b" d="m320.47 230.67 5.65 4.49 5.8-2.12-5.28-6.18z" />
    <path d="M301.15 141.56c-.11.56-.5.95-.86.88s-.57-.59-.46-1.14.5-1 .87-.88.56.58.45 1.14"
        style="fill:#263238" />
    <path d="M300.7 142.52a20.3 20.3 0 0 1-3.62 4.22 3.29 3.29 0 0 0 2.56 1Z" style="fill:#ff5652" />
    <path d="M298.9 162.14v-6.56l8.68 1s-.14 5.64-5 7.3Z" style="fill:#ff8b7b" />
    <path style="fill:#ff8b7b" d="m301.4 150.86 6.11 1.76.11 4.01-8.68-1.05z" />
    <path d="m307.51 152.62-6.11-1.76-1.19 2.28a9.73 9.73 0 0 0 5.64 8.48 9.56 9.56 0 0 0 1.77-5Z"
        style="opacity:.2" />
    <path
        d="M303.81 138.89a.34.34 0 0 0 .25-.56 3.32 3.32 0 0 0-2.84-1.1.33.33 0 0 0-.27.38.34.34 0 0 0 .38.28 2.63 2.63 0 0 1 2.24.89.34.34 0 0 0 .24.11"
        style="fill:#263238" />
    <path
        d="M316.59 151.68c-1 5.15-1.62 12.28 2 15.71 0 0-1.4 5.22-11 5.22-10.51 0-5.05-4.58-5.05-4.58 4.37-1.36 4.33-6.33 3.33-10.33Z"
        style="fill:#ff8b7b" />
    <path
        d="M320.54 170.83c.94-1.32.9-5.51-.1-6.25-1.61-1.19-8.52-1.47-17.81.67 1 4.06-1.15 6.18-1.15 6.18Zm31.26 237.41a2.3 2.3 0 0 1-1.76-.1.68.68 0 0 1-.16-.77.77.77 0 0 1 .43-.49c.95-.46 3.13.43 3.23.47a.16.16 0 0 1 .1.15.19.19 0 0 1-.09.16 10 10 0 0 1-1.75.58m-1.15-1.13a1 1 0 0 0-.19.07.42.42 0 0 0-.26.28c-.09.3 0 .4.06.43.38.32 1.78 0 2.77-.37a5.5 5.5 0 0 0-2.38-.41"
        style="fill:#008bcb" />
    <path
        d="M353.51 407.67h-.08c-.8-.23-2.5-1.44-2.52-2.23a.55.55 0 0 1 .43-.54.86.86 0 0 1 .73.06c.94.48 1.54 2.42 1.56 2.51a.16.16 0 0 1 0 .16.14.14 0 0 1-.12.04m-2-2.49h-.08c-.2.07-.2.17-.2.22 0 .47 1.14 1.42 2 1.8-.21-.56-.67-1.67-1.28-2a.58.58 0 0 0-.43-.02Zm-51.65 4.24c-.9 0-1.77-.13-2.06-.53a.63.63 0 0 1 0-.73.83.83 0 0 1 .53-.39c1.17-.32 3.63 1.08 3.73 1.14a.15.15 0 0 1 .08.17.16.16 0 0 1-.13.14 12 12 0 0 1-2.15.2m-1.11-1.37a1 1 0 0 0-.32 0 .5.5 0 0 0-.33.23c-.12.21-.07.31 0 .37.33.46 2.1.47 3.41.28a7.6 7.6 0 0 0-2.76-.88"
        style="fill:#008bcb" />
    <path
        d="M302 409.22h-.07c-.85-.38-2.53-1.9-2.4-2.7 0-.19.16-.42.62-.46a1.2 1.2 0 0 1 .92.28 4.78 4.78 0 0 1 1.1 2.71.2.2 0 0 1-.07.15.2.2 0 0 1-.1.02m-1.72-2.85h-.1c-.3 0-.32.14-.32.18-.08.48 1.06 1.68 1.93 2.2a3.87 3.87 0 0 0-.93-2.17.88.88 0 0 0-.59-.21Z"
        style="fill:#008bcb" />
    <path style="fill:#ff8b7b"
        d="M309.72 409.06h-7.03l-.7-16.29h7.03zm51.63-3.26-6.87 1.49-6.91-15.17 6.88-1.49z" />
    <path
        d="m353.81 406.6 7.73-1.67a.61.61 0 0 1 .68.34l2.68 5.82a1 1 0 0 1-.74 1.44c-2.7.53-4.05.66-7.44 1.39-2.09.46-6.81 1.61-9.7 2.23s-3.88-2.15-2.75-2.66c5.05-2.31 7.15-4.34 8.52-6.23a1.7 1.7 0 0 1 1.02-.66m-51.07 1.64h7.68a.62.62 0 0 1 .6.48l1.39 6.25a1 1 0 0 1-1 1.26c-2.77-.05-6.77-.21-10.25-.21-4.08 0-7.59.22-12.37.22-2.89 0-3.69-2.92-2.48-3.19 5.5-1.2 10-1.33 14.75-4.26a3.27 3.27 0 0 1 1.68-.55"
        style="fill:#263238" />
    <path
        d="M331.17 169c6.59 1.51 12 18.34 12 18.34L330 197.41a28.93 28.93 0 0 1-7-13c-2.33-8.82 1.43-16.97 8.17-15.41"
        style="fill:#008bcb" />
    <path
        d="M331.17 169c6.59 1.51 12 18.34 12 18.34L330 197.41a28.93 28.93 0 0 1-7-13c-2.33-8.82 1.43-16.97 8.17-15.41"
        style="opacity:.4" />
    <path
        d="M296.5 189.07c-1.64 1.77-3.28 3.35-5 5-.85.8-1.71 1.6-2.59 2.37l-1.33 1.17-.33.29-.57.46a8 8 0 0 1-1.93 1.14 6.3 6.3 0 0 1-2.44.5 6 6 0 0 1-2.1-.37 5.9 5.9 0 0 1-2-1.27 6 6 0 0 1-1.56-2.59 6.8 6.8 0 0 1-.29-1.49 10 10 0 0 1 0-1.78c.05-.48.11-.9.19-1.29a25 25 0 0 1 1.16-4 36 36 0 0 1 1.55-3.62c.64-1.27 1.25-2.2 1.86-3.26a81.7 81.7 0 0 1 8.45-11.46 77.4 77.4 0 0 1 10.25-9.72l3.68 3.79c-2.58 3.46-5.12 7.17-7.47 10.82a117 117 0 0 0-6.4 11.25c-.43.94-1 2-1.27 2.76a27 27 0 0 0-.93 2.7 17.5 17.5 0 0 0-.57 2.52 4 4 0 0 0 0 .4v-.09a2.8 2.8 0 0 0-.13-.66 4.3 4.3 0 0 0-1.15-1.86 4.9 4.9 0 0 0-1.65-1 4.8 4.8 0 0 0-1.68-.31 4.1 4.1 0 0 0-1.61.31 4 4 0 0 0-.5.25l.38-.35 1.21-1.1 2.39-2.24c1.58-1.49 3.17-3.08 4.67-4.56Z"
        style="fill:#ff8b7b" />
    <path
        d="M325.52 181.36c3.58 3.54 4.75 10 5 15.6l-.58.45a28.93 28.93 0 0 1-7-13c-.13-.52-.25-1-.34-1.57Z"
        style="opacity:.2" />
    <path
        d="M289.51 176c-1.44 7.6-2.34 23.21 1.83 54.11H329c.26-5.77-3.37-33.95 2.2-61.16a99 99 0 0 0-12.6-1.59 140 140 0 0 0-16 0c-1.76.16-3.5.42-5 .69a10 10 0 0 0-8.09 7.95"
        style="fill:#008bcb" />
    <path
        d="M289.51 176c-1.44 7.6-2.34 23.21 1.83 54.11H329c.26-5.77-3.37-33.95 2.2-61.16a99 99 0 0 0-12.6-1.59 140 140 0 0 0-16 0c-1.76.16-3.5.42-5 .69a10 10 0 0 0-8.09 7.95"
        style="opacity:.4" />
    <path
        d="m295.27 187.27-6.8-1.63c-.21 4.12-.23 9.22.07 15.53 3.13-3.56 7.13-9.12 6.73-13.9m6.72 205.5.36 8.4h7.04l-.36-8.4zm52.46-2.14-6.88 1.49 3.56 7.82 6.88-1.49z"
        style="opacity:.2" />
    <path
        d="M319.93 144.16c-1.8 6.74-2.52 10.78-6.68 13.58C307 162 299.2 157.12 299 150c-.22-6.43 2.77-16.38 10-17.74a9.52 9.52 0 0 1 10.93 11.9"
        style="fill:#ff8b7b" />
    <path
        d="M304.15 144.41c-.34-.9-1.89-7.87-.43-9.68s18.11-.5 20.57 1.92c4.09 4 1.25 7.6-3.22 12.23-3.36 3.48-3.49 7.4-5.19 8-3 1-7.58.06-8.5-3.11s-3.23-9.36-3.23-9.36"
        style="fill:#263238" />
    <path
        d="M322.27 128.72c-5.88-2.5-16.91.27-22.87-1.17a9.18 9.18 0 0 0 7.61 9.36 78.7 78.7 0 0 0 15 1.39c6.54-.3 5.26-7.45.26-9.58"
        style="fill:#263238" />
    <path d="M323.19 136.86a11.2 11.2 0 0 0 6.23-1.19c1.1 2.66-4.95 3.39-6.23 1.19"
        style="fill:#263238" />
    <path
        d="M307.35 144.69a7.9 7.9 0 0 1-2 4.67c-1.54 1.69-3.14.63-3.41-1.42-.24-1.86.26-5 2.14-5.9s3.4.56 3.27 2.65"
        style="fill:#ff8b7b" />
    <path
        d="M304.69 230.14s8 53.75 12.37 73.89c4.79 22.05 30.53 95 30.53 95l12.59-2.73s-18-59.46-22-90.29c-3.1-23.68-9.19-75.89-9.19-75.89Z"
        style="fill:#008bcb" />
    <path d="M344.57 394.84c-.05 0 2.35 4.56 2.35 4.56l14.16-3.07-1.19-4.26Z" style="fill:#263238" />
    <path
        d="M309.74 249.29c9.23 1.81 8.25 36.23 7.14 53.94-2.66-12.52-6.56-36.6-9.22-53.69a3.15 3.15 0 0 1 2.08-.25"
        style="opacity:.30000000000000004" />
    <path
        d="M291.34 230.14s-1 52.59-.2 74c.8 22.31 8.59 95.36 8.59 95.36h11.92s.43-71.75 1-93.66c.58-23.88 3.46-75.74 3.46-75.74Z"
        style="fill:#008bcb" />
    <path d="M297.44 394.8c-.06 0 .67 4.94.67 4.94h14.49l.4-4.41Z" style="fill:#263238" />
    <path
        d="M304.25 178.34c3.37 9.09-16.44 19.8-16.44 19.8l-8.58-11S285 175.72 292 170.58c8.65-6.34 9.68.84 12.25 7.76"
        style="fill:#008bcb" />
    <path
        d="M304.25 178.34c3.37 9.09-16.44 19.8-16.44 19.8l-8.58-11S285 175.72 292 170.58c8.65-6.34 9.68.84 12.25 7.76"
        style="opacity:.4" />
    <ellipse cx="381.87" cy="86.33" rx="36.09" ry="23" style="fill:#008bcb" />
    <path
        d="M368.85 97.91a10.11 10.11 0 0 1-9.93-8.39A10.22 10.22 0 0 1 366.63 78a10.06 10.06 0 0 1 10.82 4.52l23.17-4.78a3.62 3.62 0 0 1 4.24 2.49 3.49 3.49 0 0 1-2.67 4.31l-.6.12a.59.59 0 0 0-.42.31.63.63 0 0 0 0 .52l.41 1.06a1.59 1.59 0 0 1-.62 1.93 1.9 1.9 0 0 0-.89 1.41 1.57 1.57 0 0 1-1.21 1.39l-.47.1a1.56 1.56 0 0 1-1.66-.8 1.95 1.95 0 0 0-3.61.75 1.55 1.55 0 0 1-1.2 1.38l-.47.1a1.57 1.57 0 0 1-1.66-.8 2 2 0 0 0-1.39-.94 1.59 1.59 0 0 1-1.4-1.57v-1.14a.62.62 0 0 0-.74-.58l-7.39 1.52a10.07 10.07 0 0 1-7.95 8.4 10.4 10.4 0 0 1-2.07.21m-2-19a9.21 9.21 0 0 0-7 10.42 9.11 9.11 0 0 0 18-.52v-.36L386 86.8a1.62 1.62 0 0 1 2 1.52v1.14a.59.59 0 0 0 .48.57 2.91 2.91 0 0 1 2.11 1.43.58.58 0 0 0 .59.32l.46-.1a.56.56 0 0 0 .42-.52 2.95 2.95 0 0 1 5.5-1.16.57.57 0 0 0 .58.32l.48-.1a.56.56 0 0 0 .41-.52 2.9 2.9 0 0 1 1.37-2.15.61.61 0 0 0 .21-.72l-.41-1.06a1.61 1.61 0 0 1 1.18-2.16l.61-.13a2.51 2.51 0 0 0 1.91-3.07 2.61 2.61 0 0 0-3.08-1.77L377 83.59l-.18-.31a9 9 0 0 0-9.92-4.35Zm2 15.28a6.4 6.4 0 0 1-3.51-1 6.41 6.41 0 1 1 4.81.92 6.4 6.4 0 0 1-1.29.1Zm0-11.81a6 6 0 0 0-1.11.11A5.41 5.41 0 0 0 370 93.1a5.41 5.41 0 0 0 1.88-9.81 5.3 5.3 0 0 0-2.99-.89Z"
        style="fill:#fff" />
    <ellipse cx="352.5" cy="115.26" rx="11.86" ry="7.56"
        style="fill:#008bcb;opacity:.6000000000000001" />
    <ellipse cx="333.63" cy="122.82" rx="4.87" ry="3.1"
        style="fill:#008bcb;opacity:.30000000000000004" />
</svg>